<svg width="24" height="24" viewBox="0 0 24 24" fill="none" xmlns="http://www.w3.org/2000/svg">
<path fill-rule="evenodd" clip-rule="evenodd" d="M19.7432 0.655596C19.6935 0.28536 19.3797 0 19 0L18.8982 0.00692434L18.8006 0.0270951C18.4832 0.115404 18.25 0.409422 18.25 0.758523V4.04545H15L14.8982 4.05238C14.5322 4.10261 14.25 4.41997 14.25 4.80398L14.2568 4.9069C14.3065 5.27714 14.6203 5.5625 15 5.5625H18.25V8.84943L18.2568 8.95236C18.3065 9.32259 18.6203 9.60795 19 9.60795L19.1018 9.60103C19.4678 9.5508 19.75 9.23344 19.75 8.84943V5.5625H23L23.1018 5.55558C23.4678 5.50535 23.75 5.18799 23.75 4.80398L23.7432 4.70105C23.6935 4.33081 23.3797 4.04545 23 4.04545H19.75V0.758523L19.7432 0.655596ZM6.37343 3.69567L8.17955 6.78291C8.62182 7.5389 8.62549 8.47762 8.18913 9.23712L7.63646 10.1991C7.36311 10.6749 7.41561 11.2681 7.75623 11.6859L7.83993 11.7791L11.6032 15.5852C11.988 15.9743 12.5684 16.0749 13.055 15.8489L13.1655 15.791L14.1167 15.232C14.8176 14.8201 15.6728 14.7959 16.3915 15.1582L16.5433 15.2417L19.5959 17.0683C20.9553 17.8818 21.4053 19.6559 20.601 21.0308C20.4571 21.2766 20.2781 21.4996 20.0697 21.6923C18.5863 23.0644 17.174 23.6786 15.8347 23.4766C13.0902 23.0627 9.95532 21.1112 6.40214 17.6398L6.39633 17.6442L6.10181 17.3427L5.80409 17.0452C2.37595 13.4458 0.446397 10.2753 0.03717 7.49955C-0.162518 6.1451 0.444762 4.71669 1.80139 3.21647C1.99201 3.00567 2.21245 2.8246 2.45553 2.67914C3.81498 1.86565 5.56909 2.32076 6.37343 3.69567ZM3.06659 3.72364C2.9255 3.80807 2.79755 3.91317 2.68691 4.03552C1.53915 5.30477 1.0873 6.393 1.22405 7.32057C1.5878 9.78784 3.38274 12.7534 6.64745 16.1818L7.02591 16.5618L7.58615 17.1054C10.8397 20.2145 13.6546 21.9208 16.0117 22.2762C16.9288 22.4146 18.0048 21.9576 19.2598 20.7968C19.3808 20.6849 19.4847 20.5555 19.5682 20.4128C20.0351 19.6147 19.7739 18.585 18.9848 18.1128L15.9697 16.3077L15.8562 16.2444C15.4961 16.0628 15.0686 16.0762 14.7195 16.2814L13.718 16.8683L13.5558 16.9518C12.6113 17.3905 11.493 17.19 10.7547 16.4434L6.95178 12.5952L6.83036 12.458C6.16918 11.647 6.07438 10.5023 6.5989 9.58936L7.15157 8.62739C7.36964 8.24784 7.3678 7.77871 7.14678 7.40091L5.34067 4.31367L5.25788 4.18563C4.76138 3.48855 3.81182 3.2777 3.06659 3.72364Z" fill="#007AFF"/>
</svg>
