<svg width="37" height="37" viewBox="0 0 37 37" fill="none" xmlns="http://www.w3.org/2000/svg">
<path d="M18.5 37C28.7172 37 37 28.7172 37 18.5C37 8.28273 28.7172 0 18.5 0C8.28273 0 0 8.28273 0 18.5C0 28.7172 8.28273 37 18.5 37ZM10.1189 22.2561C9.57704 21.7142 9.57704 20.8358 10.1189 20.2939L17.5189 12.8939C18.0608 12.352 18.9392 12.352 19.4811 12.8939L26.8811 20.2939C27.4229 20.8358 27.4229 21.7142 26.8811 22.2561C26.3392 22.7979 25.4608 22.7979 24.9189 22.2561L18.5 15.8373L12.0811 22.2561C11.5393 22.7979 10.6607 22.7979 10.1189 22.2561Z" fill="#212121"/>
</svg>
