<svg width="25" height="27" viewBox="0 0 25 27" fill="none" xmlns="http://www.w3.org/2000/svg">
<path fill-rule="evenodd" clip-rule="evenodd" d="M23.7913 24.0969C24.0335 23.8579 24.2416 23.5816 24.4087 23.2768C25.3433 21.5726 24.8204 19.3735 23.2408 18.3652L19.694 16.1009L19.5176 15.9974C18.6826 15.5483 17.6888 15.5783 16.8744 16.0889L15.7692 16.7818L15.6408 16.8536C15.0755 17.1337 14.401 17.009 13.954 16.5267L9.58131 11.8088L9.48405 11.6933C9.08827 11.1754 9.02728 10.44 9.34489 9.85028L9.98705 8.65786C10.4941 7.71641 10.4898 6.5528 9.97591 5.6157L7.87734 1.78887C6.94276 0.0845834 4.90462 -0.47956 3.32503 0.528815C3.04259 0.709122 2.78646 0.933576 2.56497 1.19487C0.988673 3.0545 0.28306 4.82509 0.515082 6.50403C0.990573 9.94473 3.23257 13.8747 7.21581 18.3365L7.56174 18.7052L7.90395 19.0789L7.9107 19.0735C12.0392 23.3766 15.6817 25.7956 18.8706 26.3086C20.4267 26.559 22.0678 25.7976 23.7913 24.0969ZM22.9232 23.0727C21.4432 24.5331 20.1628 25.1132 19.0604 24.9358C16.2897 24.4901 12.9926 22.355 9.18675 18.4697L8.5596 17.8201L8.11989 17.3491C4.31054 13.0815 2.214 9.38616 1.78742 6.29934C1.62303 5.10982 2.16068 3.72843 3.51424 2.13157C3.64999 1.97142 3.80698 1.83385 3.98009 1.72334C4.94822 1.1053 6.1974 1.45107 6.77021 2.49563L8.86878 6.32247C9.14549 6.82706 9.14779 7.45362 8.87478 7.96056L8.23262 9.15298C7.64589 10.2425 7.75193 11.6084 8.49151 12.5763L8.6292 12.7422L13.0444 17.5081C13.8702 18.3991 15.1211 18.6384 16.1777 18.1149L16.3615 18.0138L17.5207 17.289C17.9577 17.015 18.4929 16.9971 18.9437 17.2396L19.0791 17.3201L22.5858 19.5597C23.5539 20.1777 23.8744 21.5255 23.3015 22.5701C23.1991 22.7569 23.0716 22.9262 22.9232 23.0727Z" fill="#545458" fill-opacity="0.65"/>
</svg>
