<svg width="72" height="26" viewBox="0 0 72 26" fill="none" xmlns="http://www.w3.org/2000/svg">
<rect x="1.25" y="1.25" width="69.5" height="23.5" rx="6.75" stroke="#B3B3B3" stroke-width="2.5"/>
<path d="M15.8608 17V8.27273H21.5369V9.59801H17.4418V11.9673H21.2429V13.2926H17.4418V15.6747H21.571V17H15.8608ZM24.343 10.4545L25.6641 12.8707L27.0064 10.4545H28.6385L26.6655 13.7273L28.6726 17H27.049L25.6641 14.6435L24.2919 17H22.6555L24.6499 13.7273L22.7067 10.4545H24.343ZM29.8317 19.4545V10.4545H31.3487V11.5369H31.4382C31.5178 11.3778 31.63 11.2088 31.7749 11.0298C31.9197 10.848 32.1158 10.6932 32.3629 10.5653C32.6101 10.4347 32.9254 10.3693 33.3089 10.3693C33.8146 10.3693 34.2706 10.4986 34.6768 10.7571C35.0859 11.0128 35.4098 11.392 35.6484 11.8949C35.8899 12.3949 36.0107 13.0085 36.0107 13.7358C36.0107 14.4545 35.8928 15.0653 35.657 15.5682C35.4212 16.071 35.1001 16.4545 34.6939 16.7188C34.2876 16.983 33.8274 17.1151 33.3132 17.1151C32.9382 17.1151 32.6271 17.0526 32.38 16.9276C32.1328 16.8026 31.9339 16.652 31.7834 16.4759C31.6357 16.2969 31.5206 16.1278 31.4382 15.9688H31.3743V19.4545H29.8317ZM31.3445 13.7273C31.3445 14.1506 31.4041 14.5213 31.5234 14.8395C31.6456 15.1577 31.8203 15.4062 32.0476 15.5852C32.2777 15.7614 32.5561 15.8494 32.8828 15.8494C33.2237 15.8494 33.5092 15.7585 33.7393 15.5767C33.9695 15.392 34.1428 15.1406 34.2592 14.8224C34.3786 14.5014 34.4382 14.1364 34.4382 13.7273C34.4382 13.321 34.38 12.9602 34.2635 12.6449C34.147 12.3295 33.9737 12.0824 33.7436 11.9034C33.5135 11.7244 33.2266 11.6349 32.8828 11.6349C32.5533 11.6349 32.2734 11.7216 32.0433 11.8949C31.8132 12.0682 31.6385 12.3111 31.5192 12.6236C31.4027 12.9361 31.3445 13.304 31.3445 13.7273ZM38.8743 8.27273V17H37.3317V8.27273H38.8743ZM43.3157 17.1278C42.6765 17.1278 42.1225 16.9872 41.6538 16.706C41.185 16.4247 40.8214 16.0312 40.5629 15.5256C40.3072 15.0199 40.1793 14.429 40.1793 13.7528C40.1793 13.0767 40.3072 12.4844 40.5629 11.9759C40.8214 11.4673 41.185 11.0724 41.6538 10.7912C42.1225 10.5099 42.6765 10.3693 43.3157 10.3693C43.9549 10.3693 44.5089 10.5099 44.9776 10.7912C45.4464 11.0724 45.8086 11.4673 46.0643 11.9759C46.3228 12.4844 46.4521 13.0767 46.4521 13.7528C46.4521 14.429 46.3228 15.0199 46.0643 15.5256C45.8086 16.0312 45.4464 16.4247 44.9776 16.706C44.5089 16.9872 43.9549 17.1278 43.3157 17.1278ZM43.3242 15.892C43.6708 15.892 43.9606 15.7969 44.1935 15.6065C44.4265 15.4134 44.5998 15.1548 44.7134 14.831C44.8299 14.5071 44.8881 14.1463 44.8881 13.7486C44.8881 13.348 44.8299 12.9858 44.7134 12.6619C44.5998 12.3352 44.4265 12.0753 44.1935 11.8821C43.9606 11.6889 43.6708 11.5923 43.3242 11.5923C42.9691 11.5923 42.6737 11.6889 42.4379 11.8821C42.2049 12.0753 42.0302 12.3352 41.9137 12.6619C41.8001 12.9858 41.7433 13.348 41.7433 13.7486C41.7433 14.1463 41.8001 14.5071 41.9137 14.831C42.0302 15.1548 42.2049 15.4134 42.4379 15.6065C42.6737 15.7969 42.9691 15.892 43.3242 15.892ZM47.7614 17V10.4545H49.2571V11.5455H49.3253C49.4446 11.1676 49.6491 10.8764 49.9389 10.6719C50.2315 10.4645 50.5653 10.3608 50.9403 10.3608C51.0256 10.3608 51.1207 10.3651 51.2259 10.3736C51.3338 10.3793 51.4233 10.3892 51.4943 10.4034V11.8224C51.429 11.7997 51.3253 11.7798 51.1832 11.7628C51.044 11.7429 50.9091 11.733 50.7784 11.733C50.4972 11.733 50.2443 11.794 50.0199 11.9162C49.7983 12.0355 49.6236 12.2017 49.4957 12.4148C49.3679 12.6278 49.304 12.8736 49.304 13.152V17H47.7614ZM55.1474 17.1278C54.4911 17.1278 53.9244 16.9915 53.4471 16.7188C52.9727 16.4432 52.6076 16.054 52.3519 15.5511C52.0962 15.0455 51.9684 14.4503 51.9684 13.7656C51.9684 13.0923 52.0962 12.5014 52.3519 11.9929C52.6104 11.4815 52.9712 11.0838 53.4343 10.7997C53.8974 10.5128 54.4414 10.3693 55.0664 10.3693C55.4698 10.3693 55.8505 10.4347 56.2085 10.5653C56.5692 10.6932 56.8874 10.892 57.163 11.1619C57.4414 11.4318 57.6602 11.7756 57.8192 12.1932C57.9783 12.608 58.0579 13.1023 58.0579 13.6761V14.1491H52.6928V13.1094H56.5792C56.5763 12.8139 56.5124 12.5511 56.3874 12.321C56.2624 12.0881 56.0877 11.9048 55.8633 11.7713C55.6417 11.6378 55.3832 11.571 55.0877 11.571C54.7724 11.571 54.4954 11.6477 54.2567 11.8011C54.0181 11.9517 53.832 12.1506 53.6985 12.3977C53.5678 12.642 53.5011 12.9105 53.4982 13.2031V14.1108C53.4982 14.4915 53.5678 14.8182 53.707 15.0909C53.8462 15.3608 54.0408 15.5682 54.2908 15.7131C54.5408 15.8551 54.8335 15.9261 55.1687 15.9261C55.3931 15.9261 55.5962 15.8949 55.7781 15.8324C55.9599 15.767 56.1175 15.6719 56.2511 15.5469C56.3846 15.4219 56.4854 15.267 56.5536 15.0824L57.994 15.2443C57.9031 15.625 57.7298 15.9574 57.4741 16.2415C57.2212 16.5227 56.8974 16.7415 56.5025 16.8977C56.1076 17.0511 55.6559 17.1278 55.1474 17.1278Z" fill="#333333"/>
</svg>
