<svg width="16" height="16" viewBox="0 0 16 16" fill="none" xmlns="http://www.w3.org/2000/svg">
<path fill-rule="evenodd" clip-rule="evenodd" d="M12.0985 9.18352L14.4508 10.644C14.8174 10.9338 14.5601 11.6493 14.2558 12.0504L14.1901 12.1312L14.0754 12.2527C13.5612 12.7571 12.8291 12.9739 12.1231 12.8311L11.9607 12.7917L11.5889 12.6791C9.99672 12.1662 8.49947 11.2839 7.09719 10.0324L7.08553 10.0447C6.9468 9.91444 6.81024 9.78211 6.67585 9.64772L6.55055 9.51922L6.42187 9.39374L6.22183 9.19053L6.02487 8.98407L6.03656 8.97165C4.78535 7.56958 3.90333 6.07259 3.3905 4.48068L3.27792 4.10885C3.06398 3.35442 3.27373 2.54797 3.8169 1.99417L3.93836 1.87947C4.31585 1.54942 5.1151 1.22597 5.42556 1.61878L6.88607 3.97111C7.04147 4.22276 7.07643 4.5282 6.98631 4.80551L6.94001 4.92239L6.46601 5.48757C6.31925 5.79936 6.34444 6.16158 6.52556 6.44788L6.60076 6.55144C7.0251 7.17923 7.16641 7.44858 7.89512 8.17729C8.62384 8.90601 9.51815 9.46883 9.51815 9.46883L9.62171 9.54403C9.87223 9.70251 10.1809 9.74161 10.463 9.65059L10.582 9.60358L11.1472 9.12958L11.2641 9.08329C11.5018 9.00604 11.7601 9.02069 11.9876 9.12431L12.0985 9.18352L14.4508 10.644L12.0985 9.18352Z" fill="#8E8E93"/>
</svg>
