<svg width="45" height="45" viewBox="0 0 45 45" fill="none" xmlns="http://www.w3.org/2000/svg">
<path d="M20.3543 15.2906C18.7922 14.4254 16.875 15.5552 16.875 17.3409V27.6593C16.875 29.445 18.7922 30.5747 20.3543 29.7096L31.1501 23.7302C31.5975 23.4825 31.875 23.0113 31.875 22.5C31.875 21.9887 31.5975 21.5177 31.1501 21.2698L20.3543 15.2906ZM22.5 3.75C12.1447 3.75 3.75 12.1447 3.75 22.5C3.75 32.8552 12.1447 41.25 22.5 41.25C32.8552 41.25 41.25 32.8552 41.25 22.5C41.25 12.1447 32.8552 3.75 22.5 3.75ZM6.5625 22.5C6.5625 13.698 13.698 6.5625 22.5 6.5625C31.302 6.5625 38.4375 13.698 38.4375 22.5C38.4375 31.302 31.302 38.4375 22.5 38.4375C13.698 38.4375 6.5625 31.302 6.5625 22.5Z" fill="#212121"/>
</svg>
