<svg width="21" height="19" viewBox="0 0 21 19" fill="none" xmlns="http://www.w3.org/2000/svg">
<path d="M13.125 3.36459V15.6323C13.125 16.4865 12.0103 16.9393 11.305 16.3717L7.3745 13.2098C7.25438 13.1133 7.09934 13.0601 6.93875 13.0601H3.71875C3.46021 13.0601 3.2042 13.0141 2.96534 12.9245C2.72648 12.835 2.50945 12.7038 2.32663 12.5384C2.14382 12.373 1.9988 12.1766 1.89986 11.9605C1.80092 11.7444 1.75 11.5128 1.75 11.2789V7.71797C1.75023 7.24569 1.95776 6.79282 2.32694 6.45894C2.69613 6.12507 3.19676 5.93751 3.71875 5.93751H6.93875C7.09946 5.93733 7.25451 5.88381 7.3745 5.78709L11.3041 2.62597C12.0102 2.05834 13.125 2.51117 13.125 3.36459ZM16.618 4.66926C16.7578 4.57553 16.9331 4.53588 17.1052 4.55904C17.2773 4.5822 17.4322 4.66627 17.5359 4.79276C18.6518 6.15456 19.2529 7.80553 19.25 9.5008C19.2524 11.1959 18.651 12.8465 17.535 14.2081C17.4303 14.3319 17.276 14.4135 17.1054 14.4352C16.9347 14.457 16.7615 14.4171 16.6231 14.3243C16.4846 14.2315 16.3921 14.0931 16.3654 13.9391C16.3388 13.7851 16.3802 13.6278 16.4806 13.5011C17.4291 12.3441 17.94 10.9413 17.9375 9.5008C17.9402 8.06004 17.4293 6.65689 16.4806 5.49972C16.4292 5.437 16.392 5.36574 16.3711 5.28999C16.3502 5.21425 16.346 5.13552 16.3588 5.05832C16.3715 4.98111 16.401 4.90693 16.4455 4.84004C16.49 4.77314 16.5486 4.71484 16.618 4.66847V4.66926ZM15.0001 6.62626C15.0759 6.58907 15.159 6.56576 15.2448 6.55765C15.3305 6.54954 15.4172 6.5568 15.4998 6.579C15.5824 6.6012 15.6594 6.63792 15.7264 6.68705C15.7933 6.73618 15.8489 6.79677 15.89 6.86534C16.359 7.64909 16.625 8.54763 16.625 9.5008C16.6265 10.4207 16.3738 11.3264 15.89 12.1355C15.849 12.2041 15.7934 12.2647 15.7265 12.3139C15.6596 12.3631 15.5826 12.3999 15.5 12.4222C15.4173 12.4444 15.3307 12.4518 15.2449 12.4437C15.1591 12.4357 15.076 12.4125 15.0001 12.3753C14.9243 12.3382 14.8573 12.288 14.8029 12.2274C14.7485 12.1669 14.7079 12.0972 14.6833 12.0225C14.6586 11.9477 14.6505 11.8693 14.6594 11.7917C14.6683 11.7141 14.694 11.6388 14.735 11.5702C15.115 10.9347 15.3135 10.2234 15.3125 9.5008C15.3125 8.7503 15.1025 8.04572 14.735 7.43059C14.6523 7.29211 14.6338 7.1296 14.6836 6.97877C14.7333 6.82795 14.8471 6.70116 15.0001 6.62626V6.62626Z" fill="black"/>
</svg>
