<svg width="21" height="19" viewBox="0 0 21 19" fill="none" xmlns="http://www.w3.org/2000/svg">
<path d="M13 2.25005C13 1.17205 11.726 0.600054 10.92 1.31605L6.427 5.31005C6.28986 5.43223 6.11266 5.49983 5.929 5.50005H2.25C1.65326 5.50005 1.08097 5.73711 0.65901 6.15906C0.237053 6.58102 0 7.15332 0 7.75005V12.2471C0 12.8438 0.237053 13.4161 0.65901 13.838C1.08097 14.26 1.65326 14.4971 2.25 14.4971H5.93C6.11366 14.4973 6.29086 14.5649 6.428 14.6871L10.919 18.6801C11.725 19.3971 13 18.8251 13 17.7461V2.25005V2.25005ZM14.22 7.22005C14.3606 7.0796 14.5512 7.00071 14.75 7.00071C14.9488 7.00071 15.1394 7.0796 15.28 7.22005L17 8.94005L18.72 7.22005C18.7887 7.14637 18.8715 7.08727 18.9635 7.04627C19.0555 7.00528 19.1548 6.98324 19.2555 6.98146C19.3562 6.97969 19.4562 6.99821 19.5496 7.03593C19.643 7.07365 19.7278 7.1298 19.799 7.20102C19.8703 7.27224 19.9264 7.35707 19.9641 7.45046C20.0018 7.54384 20.0204 7.64387 20.0186 7.74458C20.0168 7.84528 19.9948 7.94459 19.9538 8.03659C19.9128 8.12859 19.8537 8.21139 19.78 8.28005L18.06 10.0001L19.78 11.7201C19.8537 11.7887 19.9128 11.8715 19.9538 11.9635C19.9948 12.0555 20.0168 12.1548 20.0186 12.2555C20.0204 12.3562 20.0018 12.4563 19.9641 12.5497C19.9264 12.643 19.8703 12.7279 19.799 12.7991C19.7278 12.8703 19.643 12.9265 19.5496 12.9642C19.4562 13.0019 19.3562 13.0204 19.2555 13.0186C19.1548 13.0169 19.0555 12.9948 18.9635 12.9538C18.8715 12.9128 18.7887 12.8537 18.72 12.7801L17 11.0621L15.28 12.7821C15.2113 12.8557 15.1285 12.9148 15.0365 12.9558C14.9445 12.9968 14.8452 13.0189 14.7445 13.0206C14.6438 13.0224 14.5438 13.0039 14.4504 12.9662C14.357 12.9285 14.2722 12.8723 14.201 12.8011C14.1297 12.7299 14.0736 12.645 14.0359 12.5517C13.9982 12.4583 13.9796 12.3582 13.9814 12.2575C13.9832 12.1568 14.0052 12.0575 14.0462 11.9655C14.0872 11.8735 14.1463 11.7907 14.22 11.7221L15.94 10.0001L14.22 8.28005C14.0795 8.13943 14.0007 7.94881 14.0007 7.75005C14.0007 7.5513 14.0795 7.36068 14.22 7.22005V7.22005Z" fill="black"/>
</svg>
